<svg width="216" height="39" viewBox="0 0 216 39" fill="none" xmlns="http://www.w3.org/2000/svg">
<g clip-path="url(#clip0_70_54)">
<path d="M38.8446 10.5492H43.4196L48.2515 22.5654H48.4572L53.2891 10.5492H57.8641V28.4337H54.2658V16.7931H54.1201L49.5794 28.3463H47.1291L42.5886 16.7494H42.4429V28.4337H38.8446V10.5492ZM63.9447 28.4337H59.9694L66.0267 10.5492H70.8071L76.8557 28.4337H72.8804L68.4854 14.6361H68.3484L63.9447 28.4337ZM63.6963 21.4039H73.0861V24.3556H63.6963V21.4039ZM82.4459 10.5492L85.9842 16.6446H86.1213L89.6768 10.5492H93.8662L88.5116 19.4915L93.9862 28.4337H89.7196L86.1213 22.3295H85.9842L82.3859 28.4337H78.1366L83.6282 19.4915L78.2393 10.5492H82.4459ZM96.2137 28.4337V10.5492H103.136C104.467 10.5492 105.601 10.8083 106.537 11.3264C107.474 11.8387 108.188 12.5519 108.679 13.4659C109.176 14.3741 109.425 15.422 109.425 16.6097C109.425 17.7973 109.173 18.8452 108.671 19.7534C108.168 20.6615 107.44 21.3689 106.486 21.8755C105.538 22.3819 104.39 22.6352 103.042 22.6352H98.6297V19.6049H102.442C103.156 19.6049 103.744 19.4798 104.207 19.2295C104.675 18.9733 105.024 18.6211 105.252 18.1728C105.486 17.7187 105.603 17.1977 105.603 16.6097C105.603 16.0158 105.486 15.4977 105.252 15.0552C105.024 14.607 104.675 14.2606 104.207 14.0161C103.739 13.7657 103.145 13.6406 102.425 13.6406H99.9234V28.4337H96.2137ZM111.834 28.4337V10.5492H115.544V25.3162H123.066V28.4337H111.834ZM125.523 28.4337V10.5492H137.346V13.6668H129.232V17.9283H136.737V21.0458H129.232V25.3162H137.38V28.4337H125.523ZM143.773 10.5492L147.311 16.6446H147.448L151.004 10.5492H155.193L149.839 19.4915L155.313 28.4337H151.047L147.448 22.3295H147.311L143.713 28.4337H139.464L144.955 19.4915L139.567 10.5492H143.773ZM157.541 28.4337V10.5492H164.463C165.794 10.5492 166.928 10.8083 167.865 11.3264C168.801 11.8387 169.515 12.5519 170.006 13.4659C170.503 14.3741 170.752 15.422 170.752 16.6097C170.752 17.7973 170.5 18.8452 169.998 19.7534C169.495 20.6615 168.767 21.3689 167.813 21.8755C166.865 22.3819 165.717 22.6352 164.369 22.6352H159.957V19.6049H163.769C164.483 19.6049 165.072 19.4798 165.534 19.2295C166.003 18.9733 166.351 18.6211 166.579 18.1728C166.814 17.7187 166.931 17.1977 166.931 16.6097C166.931 16.0158 166.814 15.4977 166.579 15.0552C166.351 14.607 166.003 14.2606 165.534 14.0161C165.066 13.7657 164.472 13.6406 163.752 13.6406H161.251V28.4337H157.541ZM189.285 19.4915C189.285 21.4417 188.923 23.1009 188.197 24.4691C187.477 25.8372 186.495 26.8821 185.25 27.6041C184.011 28.3201 182.617 28.6782 181.069 28.6782C179.51 28.6782 178.11 28.3172 176.871 27.5953C175.632 26.8735 174.652 25.8284 173.932 24.4603C173.213 23.0922 172.853 21.436 172.853 19.4915C172.853 17.5411 173.213 15.882 173.932 14.5138C174.652 13.1457 175.632 12.1036 176.871 11.3875C178.11 10.6656 179.51 10.3047 181.069 10.3047C182.617 10.3047 184.011 10.6656 185.25 11.3875C186.495 12.1036 187.477 13.1457 188.197 14.5138C188.923 15.882 189.285 17.5411 189.285 19.4915ZM185.524 19.4915C185.524 18.2281 185.338 17.1627 184.967 16.2953C184.602 15.4278 184.085 14.77 183.416 14.3217C182.748 13.8734 181.966 13.6493 181.069 13.6493C180.172 13.6493 179.39 13.8734 178.722 14.3217C178.053 14.77 177.534 15.4278 177.162 16.2953C176.797 17.1627 176.614 18.2281 176.614 19.4915C176.614 20.7547 176.797 21.8202 177.162 22.6876C177.534 23.555 178.053 24.2128 178.722 24.6612C179.39 25.1094 180.172 25.3337 181.069 25.3337C181.966 25.3337 182.748 25.1094 183.416 24.6612C184.085 24.2128 184.602 23.555 184.967 22.6876C185.338 21.8202 185.524 20.7547 185.524 19.4915ZM208.158 19.4915C208.158 21.4417 207.794 23.1009 207.068 24.4691C206.35 25.8372 205.366 26.8821 204.122 27.6041C202.882 28.3201 201.489 28.6782 199.942 28.6782C198.381 28.6782 196.982 28.3172 195.742 27.5953C194.504 26.8735 193.524 25.8284 192.804 24.4603C192.084 23.0922 191.724 21.436 191.724 19.4915C191.724 17.5411 192.084 15.882 192.804 14.5138C193.524 13.1457 194.504 12.1036 195.742 11.3875C196.982 10.6656 198.381 10.3047 199.942 10.3047C201.489 10.3047 202.882 10.6656 204.122 11.3875C205.366 12.1036 206.35 13.1457 207.068 14.5138C207.794 15.882 208.158 17.5411 208.158 19.4915ZM204.395 19.4915C204.395 18.2281 204.211 17.1627 203.839 16.2953C203.474 15.4278 202.957 14.77 202.288 14.3217C201.619 13.8734 200.837 13.6493 199.942 13.6493C199.044 13.6493 198.262 13.8734 197.593 14.3217C196.926 14.77 196.406 15.4278 196.034 16.2953C195.669 17.1627 195.486 18.2281 195.486 19.4915C195.486 20.7547 195.669 21.8202 196.034 22.6876C196.406 23.555 196.926 24.2128 197.593 24.6612C198.262 25.1094 199.044 25.3337 199.942 25.3337C200.837 25.3337 201.619 25.1094 202.288 24.6612C202.957 24.2128 203.474 23.555 203.839 22.6876C204.211 21.8202 204.395 20.7547 204.395 19.4915ZM214.487 10.5492V28.4337H210.836V10.5492H214.487Z" fill="#011E46"/>
<path d="M14.5284 1.20626C13.4095 1.86889 12.4662 2.43865 12.4324 2.47233C12.3984 2.50601 14.8231 3.98734 17.8207 5.76407L23.2707 8.99465L23.293 15.4711L23.3152 21.9476L25.3928 20.7186L27.4705 19.4896V12.9742V6.45869L22.0237 3.22855C19.028 1.45199 16.5738 -0.000799519 16.5699 3.30116e-07C16.5659 0.000800178 15.6473 0.543631 14.5284 1.20626Z" fill="#011E46"/>
<path d="M10.8924 26.821V29.2928L13.944 31.1033C15.6224 32.0991 18.0915 33.5618 19.4309 34.3539L21.8663 35.7941L23.0235 35.1059C23.66 34.7272 26.119 33.2687 28.4876 31.8645L32.7944 29.3112V26.8208C32.7944 24.7471 32.7745 24.3381 32.6757 24.3769C32.552 24.4257 31.0059 25.3378 25.2921 28.7333C23.4275 29.8415 21.8834 30.7479 21.861 30.7479C21.8386 30.7479 19.3926 29.3083 16.4257 27.5485C13.4586 25.7889 10.9998 24.3492 10.9617 24.3492C10.9236 24.3492 10.8924 25.4616 10.8924 26.821Z" fill="#011E46"/>
<path fill-rule="evenodd" clip-rule="evenodd" d="M1.75954 15.1123C2.61657 14.6008 5.05134 13.1524 7.17012 11.8936C9.28891 10.6349 11.0685 9.60307 11.1248 9.60086C11.2556 9.59552 15.2528 11.957 15.28 12.0557C15.2912 12.0963 14.2209 12.7646 12.9017 13.5407C11.5824 14.3169 9.14927 15.7551 7.49476 16.7366L4.48648 18.5212V24.9902C4.48648 28.9459 4.45506 31.4592 4.40554 31.4592C4.36095 31.4592 3.39683 30.9034 2.26294 30.2238L0.201294 28.9885V22.5155V16.0424L1.75954 15.1123Z" fill="#011E46"/>
<path d="M28.5319 13.9645L28.5098 20.4555L23.0789 23.6689C20.0918 25.4362 17.648 26.9022 17.6478 26.9266C17.6476 26.966 21.3336 29.171 21.706 29.3542C21.8493 29.4247 22.5751 29.0069 30.9337 24.0422L32.7516 22.9623L32.7738 16.4767L32.7961 9.99111L32.5575 9.84695C32.4261 9.76768 31.4718 9.20122 30.4365 8.58817L28.5541 7.47344L28.5319 13.9645Z" fill="#FBD208"/>
<path d="M7.51641 18.2991L5.48203 19.5179L5.45986 26.0148L5.43762 32.5116L5.89271 32.7679C6.38538 33.0455 15.7029 38.5693 16.1301 38.8371L16.3898 38.9998L18.4541 37.777C19.5894 37.1046 20.5138 36.5177 20.5081 36.4729C20.5 36.4076 12.1302 31.3891 10.1784 30.279L9.68065 29.996V23.5289C9.68065 19.9721 9.65147 17.066 9.61571 17.0711C9.57996 17.0762 8.63533 17.6289 7.51641 18.2991Z" fill="#FBD208"/>
<path d="M7.46778 5.1679C5.56618 6.29285 3.11438 7.74547 2.01928 8.39583L0.0281816 9.57828L0.00515485 12.0759C-0.00748428 13.4496 0.00394221 14.5735 0.0304324 14.5735C0.078565 14.5735 5.04739 11.6595 5.78505 11.1987C7.71112 9.99535 10.9176 8.16548 11.0254 8.20804C11.0978 8.23657 12.6655 9.15533 14.5092 10.2499C19.7998 13.3905 21.8085 14.5735 21.8507 14.5735C21.872 14.5735 21.8793 13.4483 21.8667 12.073L21.8437 9.5725L16.6928 6.51361C13.8598 4.83125 11.4031 3.38007 11.2335 3.28862L10.9252 3.12244L7.46778 5.1679Z" fill="#FBD208"/>
</g>
<defs>
<clipPath id="clip0_70_54">
<rect width="216" height="39" fill="white"/>
</clipPath>
</defs>
</svg>
