<svg width="15" height="13" viewBox="0 0 15 13" fill="none" xmlns="http://www.w3.org/2000/svg">
<path fill-rule="evenodd" clip-rule="evenodd" d="M10.0201 0.0803834C9.80792 0.178324 9.61342 0.372024 9.54451 0.553907C9.48244 0.717702 9.48213 1.08738 9.54392 1.25244C9.57026 1.3228 9.79739 1.58681 10.0486 1.83904L10.5054 2.29775L9.8982 2.3267C7.7701 2.42828 5.81805 3.12777 4.07951 4.41177C3.56044 4.79513 2.63368 5.68536 2.22006 6.19788C1.09912 7.58687 0.342339 9.24245 0.0421529 10.9625C-0.0490376 11.4852 -0.000137425 11.7052 0.266416 11.971C0.572982 12.2767 0.942074 12.3283 1.3499 12.1224C1.60629 11.993 1.73895 11.7546 1.84249 11.2375C2.0925 9.98866 2.50357 8.9879 3.18442 7.97036C4.60291 5.85043 6.91379 4.45395 9.46006 4.17794C9.95015 4.12486 10.7904 4.11527 11.0602 4.15972L11.2344 4.18839L10.4138 5.01137C9.9625 5.46399 9.5714 5.89188 9.54464 5.96223C9.48221 6.12653 9.48212 6.49616 9.54451 6.66077C9.70816 7.09275 10.2785 7.33113 10.7165 7.15066C10.9486 7.05508 13.8015 4.22343 13.9202 3.97092C14.0213 3.75586 14.032 3.45736 13.9458 3.25366C13.861 3.05319 10.9568 0.176415 10.7368 0.0749296C10.5161 -0.0268741 10.248 -0.024829 10.0201 0.0803834Z" fill="white"/>
</svg>
