<svg width="18" height="28" viewBox="0 0 18 28" fill="none" xmlns="http://www.w3.org/2000/svg">
<path fill-rule="evenodd" clip-rule="evenodd" d="M16.5383 0.44028C17.3795 0.870116 17.7642 1.79181 17.4929 2.72731C17.3945 3.06651 17.2348 3.31055 16.8852 3.65582C16.6243 3.91348 13.8973 6.32833 10.825 9.02228C7.75266 11.7161 5.24118 13.9485 5.24378 13.9831C5.24639 14.0177 7.73328 16.2201 10.7702 18.8772C17.7405 24.9761 17.4056 24.6622 17.5779 25.2565C18.0607 26.9218 16.3736 28.3773 14.9022 27.5649C14.3734 27.2729 1.00322 15.5065 0.696236 15.0629C0.128397 14.2426 0.243526 13.2635 0.996038 12.5128C1.23213 12.2772 4.41975 9.45884 8.07956 6.24974C13.0716 1.87261 14.8225 0.387827 15.0892 0.305927C15.6344 0.138354 16.017 0.173875 16.5383 0.44028Z" fill="#93A0B2"/>
</svg>
