<svg width="25" height="29" viewBox="0 0 25 29" fill="none" xmlns="http://www.w3.org/2000/svg">
<path fill-rule="evenodd" clip-rule="evenodd" d="M7.71523 0.0758859C6.83396 0.314286 6.18859 1.05718 6.05452 1.98768C6.00026 2.36434 6.00547 2.42494 6.10924 2.625C6.25588 2.90752 6.51983 3.06311 6.84438 3.05818C7.27972 3.05161 7.55867 2.7619 7.63015 2.24211C7.68339 1.85502 7.89784 1.64817 8.29477 1.60099C8.45812 1.58162 11.6122 1.57341 15.3037 1.58281C22.6575 1.60156 22.1312 1.57641 22.3748 1.92039C22.4613 2.0425 22.4699 2.83032 22.4837 11.8309C22.4955 19.5903 22.4839 21.6535 22.4271 21.8258C22.3437 22.0788 22.0528 22.3021 21.8067 22.3021C21.5923 22.3021 21.2154 22.4968 21.1334 22.65C20.9231 23.0428 20.9654 23.4162 21.251 23.6898C21.3952 23.828 21.48 23.8581 21.7778 23.877C22.6744 23.9341 23.5557 23.3395 23.9231 22.4296L24.0547 22.1038V11.9651C24.0547 2.2779 24.05 1.81322 23.9508 1.52843C23.7474 0.94498 23.206 0.384747 22.6104 0.141306L22.2988 0.0139777L15.1621 0.00298937C9.01218 -0.00646961 7.98251 0.00361242 7.71523 0.0758859ZM2.41797 5.18804C1.80784 5.39654 1.27377 5.91372 1.02025 6.5417L0.888672 6.86749V17.0062C0.888672 26.6934 0.893316 27.1581 0.992551 27.4429C1.19595 28.0263 1.73732 28.5866 2.33301 28.83L2.64453 28.9573L9.74738 28.9726C17.4858 28.9892 17.2182 28.9991 17.7727 28.6741C18.3205 28.3531 18.7583 27.7316 18.8724 27.1129C18.9112 26.903 18.9255 23.4686 18.9155 16.8326L18.9004 6.86749L18.7688 6.5417C18.5099 5.90052 17.9761 5.39829 17.3185 5.17717C17.0642 5.09164 16.4014 5.08365 9.87029 5.08728C3.26344 5.09096 2.67897 5.09883 2.41797 5.18804ZM16.9407 6.75132C17.028 6.79647 17.1478 6.90476 17.2069 6.99205C17.3115 7.14639 17.3145 7.41985 17.3145 17.0087C17.3145 26.3314 17.309 26.8749 17.2145 27.0191C17.1596 27.103 17.046 27.2165 16.9621 27.2715C16.8186 27.3656 16.4072 27.3714 9.92534 27.3714C2.47676 27.3714 2.79112 27.3844 2.57651 27.0683C2.47954 26.9255 2.47387 26.4465 2.45983 17.14C2.4481 9.39157 2.45988 7.31671 2.51647 7.14498C2.56099 7.00989 2.66033 6.8795 2.78036 6.79879L2.97282 6.66925H9.87743C15.7958 6.66925 16.8047 6.68098 16.9407 6.75132Z" fill="#A9A9A9"/>
</svg>
