<svg width="30" height="30" viewBox="0 0 30 30" fill="none" xmlns="http://www.w3.org/2000/svg">
<path fill-rule="evenodd" clip-rule="evenodd" d="M9.66814 0.409519C6.85605 0.512059 5.44023 0.871383 3.95256 1.86003C2.3263 2.94092 1.2666 4.46603 0.755823 6.46073C0.36212 7.99828 0.334387 8.5449 0.333048 14.8054C0.331708 21.0722 0.362042 21.7285 0.728405 23.348C1.07405 24.8756 1.63478 25.9485 2.645 27.0154C3.97446 28.4192 5.49294 29.1381 7.85839 29.4835C9.81721 29.7697 20.883 29.7054 22.6681 29.3975C24.6396 29.0576 26.0539 28.3449 27.2856 27.0708C28.2505 26.0727 28.8349 24.9879 29.2127 23.4936C29.536 22.2152 29.6008 21.2194 29.6529 16.7335C29.7048 12.2666 29.6034 8.52861 29.3976 7.32937C28.9386 4.65372 27.635 2.68327 25.5778 1.55556C24.8766 1.17121 23.5413 0.74004 22.6162 0.599254C20.9993 0.353173 14.019 0.250869 9.66814 0.409519ZM19.6742 2.99734C21.4775 3.07556 22.4441 3.21682 23.4221 3.54506C25.3755 4.20067 26.3968 5.48341 26.8141 7.80477C26.9293 8.44558 26.9525 9.32634 26.9815 14.1365C27.0155 19.8063 26.9681 21.3667 26.727 22.5114C26.466 23.7507 26.0624 24.5459 25.3075 25.3081C24.7744 25.8465 24.3222 26.1347 23.5626 26.4203C22.2192 26.9253 21.1104 27.0032 15.269 27.0032C10.2968 27.0032 8.52115 26.9328 7.30451 26.6873C5.20686 26.2642 3.74874 24.8515 3.2036 22.7143C2.93037 21.643 2.879 20.1306 2.915 14.2084C2.944 9.43471 2.96779 8.53112 3.07928 7.95893C3.39451 6.34142 3.83414 5.3623 4.58373 4.60855C5.31504 3.87314 6.07542 3.49918 7.46989 3.18904C8.47222 2.9661 16.1662 2.8453 19.6742 2.99734ZM22.0557 5.6072C21.1713 6.04451 20.8439 7.07573 21.309 7.95877C21.6285 8.56536 22.0455 8.83638 22.7218 8.87738C23.1977 8.90619 23.3037 8.88478 23.6501 8.69017C24.2084 8.37641 24.4868 7.94602 24.5372 7.3189C24.5828 6.75119 24.4799 6.425 24.1212 6.00004C23.6567 5.44973 22.7305 5.27361 22.0557 5.6072ZM13.838 7.55829C11.928 7.82861 9.89915 9.09883 8.80376 10.7099C8.34742 11.3812 7.90212 12.3527 7.70428 13.1086C7.50266 13.8793 7.47564 15.8623 7.65519 16.7085C8.01896 18.4229 9.26428 20.1906 10.8588 21.2559C14.2188 23.5007 18.7603 22.6475 21.1382 19.3248C21.5931 18.6891 22.0758 17.6651 22.2855 16.8909C22.5321 15.9805 22.5321 14.0238 22.2855 13.1135C21.5867 10.5336 19.5925 8.50641 17.0181 7.75896C16.258 7.53822 14.682 7.43883 13.838 7.55829ZM16.6409 10.3977C18.0061 10.9223 19.1534 12.0814 19.6016 13.3889C19.8452 14.0995 19.9015 15.5051 19.715 16.222C19.4148 17.3764 18.4661 18.6307 17.4681 19.1928C16.6484 19.6545 15.9261 19.8421 14.9725 19.8409C14.2414 19.84 14.0283 19.808 13.4791 19.6171C12.2566 19.1921 11.2274 18.3265 10.6584 17.2449C9.93208 15.8644 9.95533 14.0977 10.719 12.6413C11.2453 11.6375 12.5532 10.6011 13.6961 10.2822C14.3626 10.0961 16.0259 10.1615 16.6409 10.3977Z" fill="#011E46"/>
</svg>
