<svg width="29" height="29" viewBox="0 0 29 29" fill="none" xmlns="http://www.w3.org/2000/svg">
<path fill-rule="evenodd" clip-rule="evenodd" d="M12.3224 0.0667236C12.1136 0.160804 11.9249 0.360462 11.8447 0.572071C11.8033 0.681331 11.7843 2.61096 11.7843 6.70342V12.6753L9.90101 12.6766C8.18695 12.6777 7.99686 12.6873 7.78554 12.7832C7.44252 12.939 7.28325 13.1949 7.28325 13.5901C7.28325 13.8724 7.30743 13.9424 7.47934 14.1575C7.58724 14.2925 9.08289 16.0115 10.8031 17.9776C12.9539 20.4357 13.9919 21.5812 14.1264 21.645C14.3749 21.763 14.6312 21.763 14.8797 21.645C15.0142 21.5812 16.0522 20.4357 18.203 17.9776C19.9232 16.0115 21.4189 14.2925 21.5268 14.1575C21.7001 13.9406 21.7229 13.8737 21.7229 13.581C21.7229 13.2967 21.6986 13.2199 21.5509 13.0375C21.274 12.6953 21.1994 12.6844 19.1058 12.6796L17.2233 12.6753L17.2084 6.61891C17.1936 0.601977 17.1928 0.56148 17.0767 0.406114C17.0125 0.320077 16.8896 0.197167 16.8036 0.132937C16.6531 0.0205615 16.569 0.0156338 14.5698 0.00317285C12.9237 -0.00713574 12.457 0.00606153 12.3224 0.0667236ZM0.921939 23.7627L0.937629 27.6001L1.08603 27.9165C1.27464 28.3187 1.5784 28.6225 1.98061 28.8111L2.297 28.9595H14.5031H26.7091L27.0255 28.8111C27.4277 28.6225 27.7315 28.3187 27.9201 27.9165L28.0685 27.6001L28.0842 23.7627L28.0999 19.9253H26.2858H24.4718V22.6441V25.3628H14.5031H4.53431V22.6441V19.9253H2.72028H0.90625L0.921939 23.7627Z" fill="#DF2E43"/>
</svg>
