<svg width="25" height="25" viewBox="0 0 25 25" fill="none" xmlns="http://www.w3.org/2000/svg">
<path fill-rule="evenodd" clip-rule="evenodd" d="M0.683468 0.0948131C0.373726 0.201551 0.18711 0.394599 0.0747786 0.724587C0.00816127 0.920176 -0.000239157 2.13168 5.04187e-06 11.4806C0.000151561 18.6816 0.016464 22.0746 0.0514821 22.2008C0.117465 22.4385 0.363324 22.7175 0.600343 22.8237C0.702857 22.8696 3.19031 23.388 6.12802 23.9757C11.2932 25.009 11.4771 25.0422 11.7052 24.9817C11.9961 24.9047 12.244 24.7113 12.3772 24.4572C12.4621 24.2951 12.4808 24.1572 12.4942 23.5923L12.5101 22.9203H15.2186C18.1738 22.9203 18.1237 22.9248 18.4306 22.6367C18.5079 22.5643 18.6118 22.417 18.6616 22.3094C18.7468 22.1252 18.752 21.9218 18.752 18.7662C18.752 15.6323 18.7463 15.4059 18.6631 15.2224C18.3116 14.4483 17.2182 14.4069 16.8006 15.1517L16.6785 15.3695L16.6644 18.1186L16.6502 20.8677H14.5768H12.5035L12.4909 12.376C12.4783 3.89501 12.4781 3.88416 12.3772 3.69151C12.1809 3.31709 12.0789 3.2713 10.134 2.68385C9.14006 2.38362 8.3177 2.12958 8.30651 2.11927C8.29533 2.10896 10.1681 2.10055 12.4682 2.10055H16.6502L16.6643 4.82521C16.6784 7.53349 16.6791 7.55108 16.7869 7.75283C17.194 8.51461 18.2515 8.51564 18.6304 7.75469L18.7542 7.50622V4.19978C18.7542 1.8579 18.7379 0.844863 18.6986 0.727178C18.6073 0.454321 18.4145 0.239965 18.1494 0.116415L17.8995 0L9.42578 0.0010752C1.23838 0.00219927 0.943002 0.00532713 0.683468 0.0948131ZM20.6345 7.32627C20.14 7.44835 19.8141 7.84784 19.8153 8.3307C19.8162 8.73615 19.9234 8.90144 20.6901 9.67939L21.4055 10.4053L18.3827 10.4194L15.3598 10.4334L15.1422 10.5555C14.518 10.906 14.4173 11.7591 14.9441 12.2353C15.0481 12.3293 15.2171 12.4295 15.3197 12.4581C15.4418 12.492 16.5357 12.51 18.485 12.5102L21.4636 12.5104L20.7242 13.2558C20.3176 13.6657 19.9466 14.0775 19.8997 14.171C19.7268 14.5163 19.8179 15.0302 20.1026 15.3154C20.4282 15.6416 20.8581 15.7172 21.2694 15.5207C21.6106 15.3576 24.7589 12.2006 24.9049 11.8751C25.0379 11.5785 25.0316 11.3111 24.8848 11.0162C24.7143 10.6739 21.4939 7.46448 21.245 7.38887C20.9722 7.30599 20.7917 7.28746 20.6345 7.32627Z" fill="#011E46"/>
</svg>
