<svg width="29" height="30" viewBox="0 0 29 30" fill="none" xmlns="http://www.w3.org/2000/svg">
<circle cx="14.5" cy="14.5" r="13.5" stroke="#011E46" stroke-width="2"/>
<path d="M15.6602 6.54545L15.4897 19.0909H13.5124L13.342 6.54545H15.6602ZM14.5011 24.1364C14.0806 24.1364 13.7198 23.9858 13.4187 23.6847C13.1175 23.3835 12.967 23.0227 12.967 22.6023C12.967 22.1818 13.1175 21.821 13.4187 21.5199C13.7198 21.2187 14.0806 21.0682 14.5011 21.0682C14.9215 21.0682 15.2823 21.2187 15.5835 21.5199C15.8846 21.821 16.0352 22.1818 16.0352 22.6023C16.0352 22.8807 15.9641 23.1364 15.8221 23.3693C15.6857 23.6023 15.5011 23.7898 15.2681 23.9318C15.0408 24.0682 14.7852 24.1364 14.5011 24.1364Z" fill="#011E46"/>
</svg>
