<svg width="25" height="25" viewBox="0 0 25 25" fill="none" xmlns="http://www.w3.org/2000/svg">
<path d="M13.4114 0.87719C14.0586 0.932138 14.6726 1.03041 15.2693 1.17459C15.7442 1.28932 16.8584 1.65921 16.8584 1.70209C16.8584 1.71909 16.693 1.81472 16.4908 1.91465L16.1234 2.0963H15.2777C14.4855 2.0963 14.4251 2.10279 14.3216 2.19916C14.1823 2.32879 13.338 4.02064 13.338 4.1701C13.338 4.40889 13.5038 4.52039 14.2064 4.7543C14.576 4.87733 14.9443 4.97746 15.0249 4.97683C15.1056 4.97619 15.5088 4.89033 15.9209 4.78605L16.6702 4.59639L17.241 4.78981C17.7299 4.95543 19.7911 5.41758 20.041 5.41758C20.0871 5.41758 20.3587 5.26373 20.6442 5.07568C20.9299 4.88764 21.1729 4.73379 21.1843 4.73379C21.2574 4.73379 22.1536 5.9105 22.3995 6.32922C22.4224 6.36815 22.1051 6.49426 21.3936 6.7291L20.3543 7.07212L19.2661 6.88764C18.6676 6.78619 18.1703 6.69417 18.1608 6.68314C18.1514 6.6721 17.966 6.39677 17.7489 6.07129C17.5318 5.7458 17.3178 5.46554 17.2734 5.44855C17.229 5.4315 16.5737 5.41758 15.8171 5.41758H14.4416L13.6943 6.16419C13.0108 6.84686 12.9469 6.92559 12.9469 7.08428C12.9469 7.39448 13.3376 10.0289 13.4062 10.1811C13.4666 10.3154 13.6202 10.3922 15.0556 11.0066L16.6384 11.6842L17.4604 11.4809L18.2825 11.2777L18.7317 11.5834L19.1808 11.8892L19.2053 12.7195L19.2297 13.5498L20.0487 15.1736L20.8677 16.7973V17.6594V18.5215L21.353 19.0151L21.8383 19.5086L21.5875 19.8261C21.1929 20.3256 20.3996 21.1196 19.8654 21.5501C18.1389 22.941 16.2076 23.761 13.9003 24.0829C13.2236 24.1773 11.6742 24.1638 10.9204 24.0569C5.7288 23.3207 1.6639 19.2624 0.947119 14.0998C0.785036 12.932 0.803909 11.6364 0.998898 10.546C1.07107 10.1425 1.30228 9.17 1.33338 9.13888C1.34189 9.13039 1.43009 9.36698 1.5294 9.66462C1.62865 9.96227 1.74492 10.2408 1.7877 10.2836C1.83054 10.3263 2.32554 10.6681 2.88772 11.0432L3.9099 11.725L3.64039 12.0073C3.31681 12.3462 3.29804 12.4208 3.324 13.2665L3.34317 13.8917L3.79299 14.7817C4.06548 15.3208 4.28819 15.7014 4.35791 15.747C4.42118 15.7884 4.87242 15.9021 5.36068 15.9998L6.2484 16.1773V18.1233V20.0694L6.69089 21.181C6.93428 21.7924 7.1766 22.3294 7.2294 22.3743C7.34587 22.4733 8.61809 22.9032 8.79465 22.9032C8.86667 22.9032 8.9712 22.8493 9.03907 22.7772C9.1549 22.6542 9.15812 22.6279 9.18203 21.6275L9.20648 20.6036L9.9636 20.0317C10.38 19.7171 10.7482 19.4048 10.7818 19.3377C10.82 19.2615 10.8433 19.0042 10.8437 18.6533L10.8444 18.0911L11.6248 17.3126C12.0541 16.8845 12.4282 16.4781 12.4561 16.4096C12.5333 16.2203 12.898 14.3632 12.898 14.1592C12.898 13.8313 12.81 13.7976 11.8813 13.7696L11.0701 13.7452L10.4988 12.7957C10.1846 12.2734 9.87833 11.8064 9.81824 11.7578C9.71859 11.6772 9.58732 11.6694 8.32126 11.6694H6.93355L6.56797 10.949C6.36687 10.5528 6.17041 10.1882 6.13139 10.1389C6.09238 10.0897 5.97376 10.0377 5.86781 10.0235C5.68426 9.99895 5.65883 10.0132 5.32621 10.3266L4.97715 10.6555V10.2328V9.81003L4.55921 9.37689L4.14126 8.94381L4.15583 8.6106L4.1704 8.27735L5.41906 8.09952C6.10577 8.00173 6.71861 7.90556 6.7809 7.88583C6.84314 7.8661 7.37804 7.55932 7.96951 7.20419L9.04498 6.55844L9.6652 5.53622L10.2854 4.514L10.846 4.31863C11.5099 4.08731 11.5429 4.06899 11.6379 3.87904C11.8014 3.55209 12.0726 2.63405 12.0577 2.45802C12.0323 2.15789 11.9371 2.12189 10.5755 1.89761C9.51842 1.72348 9.32436 1.67791 9.14028 1.5604C9.02318 1.48572 8.94617 1.41299 8.96915 1.39888C8.99213 1.38476 9.21992 1.31653 9.4754 1.24727C10.7919 0.89028 12.1078 0.766562 13.4114 0.87719Z" fill="#011E46"/>
<path d="M6.02999 11.7236C6.19046 12.049 6.3742 12.3567 6.43835 12.4074C6.54655 12.4931 6.65593 12.4997 7.95426 12.4997H9.35355L9.95192 13.4961C10.4608 14.3434 10.5734 14.5005 10.7046 14.5462C10.7896 14.5758 11.1087 14.6 11.414 14.6C11.8254 14.6 11.969 14.6157 11.969 14.661C11.969 14.6946 11.911 15.0188 11.8401 15.3814L11.711 16.0408L10.8621 16.8986L10.0132 17.7564V18.3506V18.9446L9.23279 19.5316C8.80354 19.8545 8.42951 20.1613 8.40159 20.2134C8.37235 20.268 8.35084 20.6531 8.35084 21.1224C8.35084 21.7992 8.3393 21.9324 8.28258 21.9106C8.24503 21.8962 8.12705 21.8583 8.02041 21.8264L7.8265 21.7684L7.45304 20.8334L7.07959 19.8983V17.7842V15.67L6.96792 15.5585C6.87707 15.4677 6.67641 15.4115 5.88922 15.2564C5.3573 15.1517 4.9042 15.0545 4.8823 15.0405C4.86039 15.0265 4.68575 14.7022 4.49423 14.3197L4.14596 13.6244V13.151V12.6776L4.91403 11.9049C5.33648 11.4799 5.69477 11.1321 5.71022 11.1321C5.72562 11.1321 5.86957 11.3983 6.02999 11.7236Z" fill="#F08296"/>
<path d="M17.2153 6.75537C17.3982 7.03353 17.599 7.3092 17.6616 7.36796C17.7572 7.45768 17.9901 7.51053 19.1185 7.69833L20.4616 7.92193L21.6527 7.52494C22.3079 7.30656 22.8601 7.14421 22.88 7.16414C22.9476 7.23183 23.3573 8.19422 23.532 8.69564C23.8887 9.71947 24.0647 10.5995 24.1525 11.7989C24.3129 13.99 23.7403 16.4127 22.6089 18.33L22.3244 18.812L22.0117 18.5024L21.6989 18.1927V17.4001V16.6075L20.8677 14.9433L20.0365 13.2791V12.4815C20.0365 12.0429 20.0132 11.6173 19.9848 11.5357C19.9347 11.3923 19.4588 11.0388 18.6809 10.5671C18.6698 10.5604 18.6592 10.5539 18.6491 10.5477C18.5826 10.5071 18.5339 10.4773 18.4811 10.4597C18.3361 10.4113 18.1605 10.4545 17.5025 10.6165C17.4657 10.6256 17.4274 10.635 17.3876 10.6448L16.7188 10.8092L15.4273 10.2578L14.1357 9.70634L13.9594 8.47775L13.7831 7.24917L14.2809 6.74854L14.7786 6.2479L15.8307 6.24878L16.8828 6.24961L17.2153 6.75537Z" fill="#F08296"/>
<path d="M8.44862 2.09737C8.6772 2.24956 8.91062 2.39863 8.96739 2.42862C9.02411 2.45861 9.47515 2.55034 9.96971 2.63244C10.4642 2.71459 10.9275 2.79372 10.9991 2.80832L11.1294 2.83484L11.0323 3.12209L10.9352 3.40933L10.4106 3.58394C10.1221 3.67996 9.83853 3.79176 9.78049 3.83235C9.72246 3.87299 9.39805 4.36669 9.0596 4.9295L8.44417 5.9528L7.48903 6.52455L6.53384 7.09629L5.05954 7.30739C4.91922 7.32748 4.79028 7.34546 4.67178 7.36198C3.87013 7.47373 3.54698 7.51878 3.4186 7.70103C3.3319 7.8241 3.33403 8.00974 3.33758 8.32074C3.33836 8.38879 3.33921 8.46284 3.33921 8.54354V9.32282L3.74258 9.72787L4.14596 10.1329V10.4901C4.14596 10.6865 4.12655 10.8399 4.10283 10.8309C4.07912 10.822 3.69467 10.5729 3.24846 10.2774L2.43721 9.74013L2.12009 8.7945L1.80301 7.84886L1.95003 7.52459C2.79174 5.66878 4.4757 3.77706 6.32604 2.6087C6.88553 2.25547 7.90893 1.748 7.979 1.78903C8.00873 1.80647 8.22004 1.94523 8.44862 2.09737Z" fill="#F08296"/>
<path d="M18.3929 2.44C18.6649 2.60221 19.0783 2.87143 19.3115 3.03832C19.7807 3.37406 20.5743 4.04062 20.5743 4.09893C20.5743 4.11945 20.4288 4.23091 20.251 4.34661L19.9277 4.55703L19.0898 4.39526C18.6289 4.30627 17.9046 4.1216 17.4801 3.98484L16.7083 3.73618L15.8666 3.94352L15.0249 4.15085L14.707 4.04462C14.5323 3.98616 14.3824 3.93282 14.374 3.92603C14.3656 3.91924 14.4703 3.69164 14.6067 3.42017L14.8546 2.92662H15.5824H16.3101L17.0854 2.53905C17.5119 2.32591 17.8692 2.15007 17.8795 2.14831C17.8899 2.14656 18.1209 2.27784 18.3929 2.44Z" fill="#F08296"/>
<path d="M24.9081 14.2092C25.0399 13.3569 25.028 11.5297 24.8849 10.6464C24.6716 9.33033 24.2852 8.10447 23.7283 6.97377L22.88 7.16414C22.9476 7.23183 23.3573 8.19422 23.532 8.69564C23.8887 9.71947 24.0647 10.5995 24.1525 11.7989C24.3129 13.99 23.7403 16.4127 22.6089 18.33L22.3244 18.812L22.928 19.4133C23.9574 17.8605 24.6084 16.1476 24.9081 14.2092Z" fill="#F08296"/>
<path d="M18.3929 2.44C18.6649 2.60221 19.0783 2.87143 19.3115 3.03832C19.7807 3.37406 20.5743 4.04062 20.5743 4.09893L21.417 3.73618C21.2594 3.57614 21.0967 3.41911 20.9291 3.2651C20.2799 2.66853 19.5623 2.14511 18.7969 1.70209L17.8795 2.14831C17.8899 2.14656 18.1209 2.27784 18.3929 2.44Z" fill="#F08296"/>
<path fill-rule="evenodd" clip-rule="evenodd" d="M7.27424 1.15704L7.979 1.78903C8.00873 1.80647 8.22004 1.94523 8.44862 2.09737C8.6772 2.24956 8.91062 2.39863 8.96739 2.42862C9.02411 2.45861 9.47515 2.55034 9.96971 2.63244C10.4642 2.71459 10.9275 2.79372 10.9991 2.80832L11.1294 2.83484L11.0323 3.12209L10.9352 3.40933L10.4106 3.58394C10.1221 3.67996 9.83853 3.79176 9.78049 3.83235C9.72246 3.87299 9.39805 4.36669 9.0596 4.9295L8.44417 5.9528L7.48903 6.52455L6.53384 7.09629L5.05954 7.30739C4.91922 7.32748 4.79028 7.34546 4.67178 7.36198C3.87013 7.47373 3.54698 7.51878 3.4186 7.70103C3.3319 7.8241 3.33403 8.00974 3.33758 8.32074C3.33836 8.38879 3.33921 8.46284 3.33921 8.54354V9.32282L3.74258 9.72787L4.14596 10.1329V10.4901C4.14596 10.6865 4.12655 10.8399 4.10283 10.8309C4.07912 10.822 3.69467 10.5729 3.24846 10.2774L2.43721 9.74013L2.12009 8.7945L1.80301 7.84886L1.14124 7.26936C1.04098 7.451 0.961067 7.58106 0.934945 7.60093C0.892505 7.63322 0.870698 7.6933 0.886491 7.73437C0.902283 7.7755 0.858866 7.95787 0.789925 8.13967C-0.282955 10.9705 -0.262126 14.1926 0.847425 17.0309C2.58179 21.4675 6.64444 24.5076 11.4312 24.951C14.6236 25.2467 18.007 24.192 20.4779 22.1308C21.0934 21.6174 22.0368 20.6365 22.4741 20.0552C22.6329 19.8443 22.7841 19.6304 22.928 19.4133L22.3244 18.812L22.0117 18.5024L21.6989 18.1927V17.4001V16.6075L20.8677 14.9433L20.0365 13.2791V12.4815C20.0365 12.0429 20.0132 11.6173 19.9848 11.5357C19.9347 11.3923 19.4588 11.0388 18.6809 10.5671L18.6491 10.5477C18.5826 10.5071 18.5339 10.4773 18.4811 10.4597C18.3361 10.4113 18.1605 10.4545 17.5025 10.6165L17.3876 10.6448L16.7188 10.8092L15.4273 10.2578L14.1357 9.70634L13.9594 8.47775L13.7831 7.24917L14.2809 6.74854L14.7786 6.2479L15.8307 6.24878L16.8828 6.24961L17.2153 6.75537C17.3982 7.03353 17.599 7.3092 17.6616 7.36796C17.7572 7.45768 17.9901 7.51053 19.1185 7.69833L20.4616 7.92193L21.6527 7.52494C22.3079 7.30656 22.8601 7.14421 22.88 7.16414L23.7283 6.97377C23.1443 5.78801 22.3728 4.70689 21.417 3.73618L20.5743 4.09893C20.5743 4.11945 20.4288 4.23091 20.251 4.34661L19.9277 4.55703L19.0898 4.39526C18.6289 4.30627 17.9046 4.1216 17.4801 3.98484L16.7083 3.73618L15.8666 3.94352L15.0249 4.15085L14.707 4.04462C14.5323 3.98616 14.3824 3.93282 14.374 3.92603C14.3656 3.91924 14.4703 3.69164 14.6067 3.42017L14.8546 2.92662H15.5824H16.3101L17.0854 2.53905C17.5119 2.32591 17.8692 2.15007 17.8795 2.14831L18.7969 1.70209C16.662 0.466378 14.1554 -0.143825 11.7245 0.0287488C10.151 0.140464 8.65045 0.524429 7.27424 1.15704ZM15.2693 1.17459C14.6726 1.03041 14.0586 0.932138 13.4114 0.87719C12.1078 0.766562 10.7919 0.89028 9.4754 1.24727C9.21992 1.31653 8.99213 1.38476 8.96915 1.39888C8.94617 1.41299 9.02318 1.48572 9.14028 1.5604C9.32436 1.67791 9.51842 1.72348 10.5755 1.89761C11.9371 2.12189 12.0323 2.15789 12.0577 2.45802C12.0726 2.63405 11.8014 3.55209 11.6379 3.87904C11.5429 4.06899 11.5099 4.08731 10.846 4.31863L10.2854 4.514L9.6652 5.53622L9.04498 6.55844L7.96951 7.20419C7.37804 7.55932 6.84314 7.8661 6.7809 7.88583C6.71861 7.90556 6.10577 8.00173 5.41906 8.09952L4.1704 8.27735L4.15583 8.6106L4.14126 8.94381L4.55921 9.37689L4.97715 9.81003V10.2328V10.6555L5.32621 10.3266C5.65883 10.0132 5.68426 9.99895 5.86781 10.0235C5.97376 10.0377 6.09238 10.0897 6.13139 10.1389C6.17041 10.1882 6.36687 10.5528 6.56797 10.949L6.93355 11.6694H8.32126C9.58732 11.6694 9.71859 11.6772 9.81824 11.7578C9.87833 11.8064 10.1846 12.2734 10.4988 12.7957L11.0701 13.7452L11.8813 13.7696C12.81 13.7976 12.898 13.8313 12.898 14.1592C12.898 14.3632 12.5333 16.2203 12.4561 16.4096C12.4282 16.4781 12.0541 16.8845 11.6248 17.3126L10.8444 18.0911L10.8437 18.6533C10.8433 19.0042 10.82 19.2615 10.7818 19.3377C10.7482 19.4048 10.38 19.7171 9.9636 20.0317L9.20648 20.6036L9.18203 21.6275C9.15812 22.6279 9.1549 22.6542 9.03907 22.7772C8.9712 22.8493 8.86667 22.9032 8.79465 22.9032C8.61809 22.9032 7.34587 22.4733 7.2294 22.3743C7.1766 22.3294 6.93428 21.7924 6.69089 21.181L6.2484 20.0694V18.1233V16.1773L5.36068 15.9998C4.87242 15.9021 4.42118 15.7884 4.35791 15.747C4.28819 15.7014 4.06548 15.3208 3.79299 14.7817L3.34317 13.8917L3.324 13.2665C3.29804 12.4208 3.31681 12.3462 3.64039 12.0073L3.9099 11.725L2.88772 11.0432C2.32554 10.6681 1.83054 10.3263 1.7877 10.2836C1.74492 10.2408 1.62865 9.96227 1.5294 9.66462C1.43009 9.36698 1.34189 9.13039 1.33338 9.13888C1.30228 9.17 1.07107 10.1425 0.998898 10.546C0.803909 11.6364 0.785036 12.932 0.947119 14.0998C1.6639 19.2624 5.7288 23.3207 10.9204 24.0569C11.6742 24.1638 13.2236 24.1773 13.9003 24.0829C16.2076 23.761 18.1389 22.941 19.8654 21.5501C20.3996 21.1196 21.1929 20.3256 21.5875 19.8261L21.8383 19.5086L21.353 19.0151L20.8677 18.5215V17.6594V16.7973L20.0487 15.1736L19.2297 13.5498L19.2053 12.7195L19.1808 11.8892L18.7317 11.5834L18.2825 11.2777L17.4604 11.4809L16.6384 11.6842L15.0556 11.0066C13.6202 10.3922 13.4666 10.3154 13.4062 10.1811C13.3376 10.0289 12.9469 7.39448 12.9469 7.08428C12.9469 6.92559 13.0108 6.84686 13.6943 6.16419L14.4416 5.41758H15.8171C16.5737 5.41758 17.229 5.4315 17.2734 5.44855C17.3178 5.46554 17.5318 5.7458 17.7489 6.07129C17.966 6.39677 18.1514 6.6721 18.1608 6.68314C18.1703 6.69417 18.6676 6.78619 19.2661 6.88764L20.3543 7.07212L21.3936 6.7291C22.1051 6.49426 22.4224 6.36815 22.3995 6.32922C22.1536 5.9105 21.2574 4.73379 21.1843 4.73379C21.1729 4.73379 20.9299 4.88764 20.6442 5.07568C20.3587 5.26373 20.0871 5.41758 20.041 5.41758C19.7911 5.41758 17.7299 4.95543 17.241 4.78981L16.6702 4.59639L15.9209 4.78605C15.5088 4.89033 15.1056 4.97619 15.0249 4.97683C14.9443 4.97746 14.576 4.87733 14.2064 4.7543C13.5038 4.52039 13.338 4.40889 13.338 4.1701C13.338 4.02064 14.1823 2.32879 14.3216 2.19916C14.4251 2.10279 14.4855 2.0963 15.2777 2.0963H16.1234L16.4908 1.91465C16.693 1.81472 16.8584 1.71909 16.8584 1.70209C16.8584 1.65921 15.7442 1.28932 15.2693 1.17459ZM6.43835 12.4074C6.3742 12.3567 6.19046 12.049 6.02999 11.7236C5.86957 11.3983 5.72562 11.1321 5.71022 11.1321C5.69477 11.1321 5.33648 11.4799 4.91403 11.9049L4.14596 12.6776V13.151V13.6244L4.49423 14.3197C4.68575 14.7022 4.86039 15.0265 4.8823 15.0405C4.9042 15.0545 5.3573 15.1517 5.88922 15.2564C6.67641 15.4115 6.87707 15.4677 6.96792 15.5585L7.07959 15.67V17.7842V19.8983L7.45304 20.8334L7.8265 21.7684L8.02041 21.8264C8.12705 21.8583 8.24503 21.8962 8.28258 21.9106C8.3393 21.9324 8.35084 21.7992 8.35084 21.1224C8.35084 20.6531 8.37235 20.268 8.40159 20.2134C8.42951 20.1613 8.80354 19.8545 9.23279 19.5316L10.0132 18.9446V18.3506V17.7564L10.8621 16.8986L11.711 16.0408L11.8401 15.3814C11.911 15.0188 11.969 14.6946 11.969 14.661C11.969 14.6157 11.8254 14.6 11.414 14.6C11.1087 14.6 10.7896 14.5758 10.7046 14.5462C10.5734 14.5005 10.4608 14.3434 9.95192 13.4961L9.35355 12.4997H7.95426C6.65593 12.4997 6.54655 12.4931 6.43835 12.4074Z" fill="#011E46"/>
<path d="M3.55639 3.79098C2.61538 4.76119 1.936 5.71088 1.34477 6.88285C1.27443 7.02229 1.20386 7.15589 1.14124 7.26936L1.80301 7.84886L1.95003 7.52459C2.79174 5.66878 4.4757 3.77706 6.32604 2.6087C6.88553 2.25547 7.90893 1.748 7.979 1.78903L7.27424 1.15704C5.89232 1.79227 4.63574 2.67822 3.55639 3.79098Z" fill="#F08296"/>
</svg>
